<svg width="24" height="24" viewBox="0 0 24 24" fill="none" xmlns="http://www.w3.org/2000/svg">
<path d="M17.4 19.5H6.6C5.71977 19.5 5.16169 19.2762 4.81668 18.9148C4.46734 18.5488 4.25 17.9518 4.25 17.02V15.98C4.25 15.0482 4.46734 14.4512 4.81668 14.0852C5.16169 13.7238 5.71977 13.5 6.6 13.5H17.4C18.2802 13.5 18.8383 13.7238 19.1833 14.0852C19.5327 14.4512 19.75 15.0482 19.75 15.98V17.02C19.75 17.9518 19.5327 18.5488 19.1833 18.9148C18.8383 19.2762 18.2802 19.5 17.4 19.5ZM6.6 14C6.10876 14 5.56604 14.0369 5.1927 14.4102C4.8231 14.7798 4.75 15.3465 4.75 15.98V17.02C4.75 17.6535 4.8231 18.2202 5.1927 18.5898C5.56604 18.9631 6.10876 19 6.6 19H17.4C17.8912 19 18.434 18.9631 18.8073 18.5898C19.1769 18.2202 19.25 17.6535 19.25 17.02V15.98C19.25 15.3465 19.1769 14.7798 18.8073 14.4102C18.434 14.0369 17.8912 14 17.4 14H6.6Z" fill="#0C0D0E" stroke="#515961"/>
<path d="M15.4 11H8.6C7.71977 11 7.16169 10.7762 6.81668 10.4148C6.46734 10.0488 6.25 9.45177 6.25 8.52V7.48C6.25 6.5426 6.46763 5.94623 6.81624 5.58194C7.1607 5.22199 7.71844 5 8.6 5H15.4C16.2802 5 16.8383 5.2238 17.1833 5.58524C17.5327 5.95121 17.75 6.54823 17.75 7.48V8.52C17.75 9.45177 17.5327 10.0488 17.1833 10.4148C16.8383 10.7762 16.2802 11 15.4 11ZM8.6 5.5C8.10877 5.5 7.56604 5.53685 7.1927 5.9102C6.8231 6.27979 6.75 6.84647 6.75 7.48V8.52C6.75 9.15353 6.8231 9.72021 7.1927 10.0898C7.56604 10.4631 8.10877 10.5 8.6 10.5H15.4C15.8912 10.5 16.434 10.4631 16.8073 10.0898C17.1769 9.72021 17.25 9.15353 17.25 8.52V7.48C17.25 6.84647 17.1769 6.27979 16.8073 5.9102C16.434 5.53685 15.8912 5.5 15.4 5.5H8.6Z" fill="#0C0D0E" stroke="#515961"/>
<path d="M12 22.2496C11.8661 22.2496 11.75 22.1335 11.75 21.9996V19.5996C11.75 19.4658 11.8661 19.3496 12 19.3496C12.1339 19.3496 12.25 19.4658 12.25 19.5996V21.9996C12.25 22.1335 12.1339 22.2496 12 22.2496Z" fill="#0C0D0E" stroke="#515961"/>
<path d="M12 13.25C11.8661 13.25 11.75 13.1339 11.75 13V11C11.75 10.8661 11.8661 10.75 12 10.75C12.1339 10.75 12.25 10.8661 12.25 11V13C12.25 13.1339 12.1339 13.25 12 13.25Z" fill="#0C0D0E" stroke="#515961"/>
<path d="M12 4.94C11.8661 4.94 11.75 4.82386 11.75 4.69V2C11.75 1.86614 11.8661 1.75 12 1.75C12.1382 1.75 12.25 1.86048 12.25 2V4.69C12.25 4.82952 12.1382 4.94 12 4.94Z" fill="#0C0D0E" stroke="#515961"/>
</svg>
