<svg width="20" height="20" viewBox="0 0 20 20" fill="none" xmlns="http://www.w3.org/2000/svg">
<g id="vuesax/outline/arrow-up">
<g id="vuesax/outline/arrow-up_2">
<g id="arrow-up">
<path id="Vector" d="M11.3998 15.0584C11.3998 14.9001 11.4581 14.7418 11.5831 14.6168L16.1998 10.0001L11.5831 5.38343C11.3415 5.14176 11.3415 4.74176 11.5831 4.5001C11.8248 4.25843 12.2248 4.25843 12.4665 4.5001L17.5248 9.55843C17.7665 9.8001 17.7665 10.2001 17.5248 10.4418L12.4665 15.5001C12.2248 15.7418 11.8248 15.7418 11.5831 15.5001C11.4581 15.3834 11.3998 15.2168 11.3998 15.0584Z" fill="#131313"/>
<path id="Vector_2" d="M2.29189 10C2.29189 9.65833 2.57523 9.375 2.91689 9.375L16.9419 9.375C17.2836 9.375 17.5669 9.65833 17.5669 10C17.5669 10.3417 17.2836 10.625 16.9419 10.625L2.91689 10.625C2.57523 10.625 2.29189 10.3417 2.29189 10Z" fill="#131313"/>
</g>
</g>
</g>
</svg>
