<svg xmlns="http://www.w3.org/2000/svg" width="1em" height="1em" viewBox="0 0 24 24"><path fill="currentColor" d="M13 24q-2.575 0-4.7-1.438t-3.075-3.837L2.675 12.3q-.1-.25-.137-.463T2.5 11.35q0-.75.575-1.325T4.4 9.45q.175 0 .313.013T5 9.525l.775.2q.35.1.65.263T7 10.4V4.5q0-1.05.725-1.775T9.5 2q.15 0 .288.012t.262.038q.15-.95.863-1.5T12.5 0q.8 0 1.425.438t.9 1.162q.175-.05.338-.075T15.5 1.5q1.05 0 1.775.725T18 4v.55q.125-.025.25-.037t.25-.013q1.05 0 1.775.725T21 7v9q0 3.35-2.325 5.675T13 24Zm0-2q2.5 0 4.25-1.75T19 16V7q0-.2-.15-.35t-.35-.15q-.2 0-.35.15T18 7v5h-2V4q0-.2-.15-.35t-.35-.15q-.2 0-.35.15T15 4v8h-2V2.5q0-.2-.15-.35T12.5 2q-.2 0-.35.15T12 2.5V12h-2V4.5q0-.2-.15-.35T9.5 4q-.2 0-.35.15T9 4.5V15H7l-.975-2.5q-.175-.425-.488-.625T4.5 11.45L7.1 18q.725 1.8 2.337 2.9T13 22Z"/></svg>