<svg width="16" height="16" viewBox="0 0 16 16" fill="none" xmlns="http://www.w3.org/2000/svg">
<path fill-rule="evenodd" clip-rule="evenodd" d="M8.0001 14.4001C11.5347 14.4001 14.4001 11.5347 14.4001 8.0001C14.4001 4.46548 11.5347 1.6001 8.0001 1.6001C4.46548 1.6001 1.6001 4.46548 1.6001 8.0001C1.6001 11.5347 4.46548 14.4001 8.0001 14.4001ZM10.9658 6.96578C11.2782 6.65336 11.2782 6.14683 10.9658 5.83441C10.6534 5.52199 10.1468 5.52199 9.83441 5.83441L7.2001 8.46873L6.16578 7.43441C5.85336 7.12199 5.34683 7.12199 5.03441 7.43441C4.72199 7.74683 4.72199 8.25336 5.03441 8.56578L6.63441 10.1658C6.94683 10.4782 7.45336 10.4782 7.76578 10.1658L10.9658 6.96578Z" fill="#129961"/>
</svg>
