<svg width="40" height="40" viewBox="0 0 40 40" fill="none" xmlns="http://www.w3.org/2000/svg">
<path d="M22 24.0001C22 25.7668 21.2333 27.3668 20 28.4668C18.9333 29.4335 17.5333 30.0001 16 30.0001C12.6833 30.0001 10 27.3168 10 24.0001C10 21.2335 11.8834 18.9001 14.4167 18.2168C15.1 19.9501 16.5833 21.3001 18.4166 21.8001C18.9166 21.9335 19.45 22.0168 20 22.0168C20.55 22.0168 21.0834 21.9501 21.5834 21.8001C21.85 22.4668 22 23.2168 22 24.0001Z" stroke="#828C97" stroke-width="2" stroke-linecap="round" stroke-linejoin="round"/>
<path d="M25.9999 16C25.9999 16.7833 25.8499 17.5333 25.5833 18.2167C24.8999 19.95 23.4166 21.3 21.5833 21.8C21.0833 21.9333 20.55 22.0167 20 22.0167C19.45 22.0167 18.9166 21.95 18.4166 21.8C16.5833 21.3 15.1 19.9667 14.4167 18.2167C14.15 17.5333 14 16.7833 14 16C14 12.6833 16.6833 10 20 10C23.3166 10 25.9999 12.6833 25.9999 16Z" stroke="#828C97" stroke-width="2" stroke-linecap="round" stroke-linejoin="round"/>
<path d="M30 24.0002C30 27.3169 27.3167 30.0002 24 30.0002C22.4667 30.0002 21.0667 29.4169 20 28.4669C21.2333 27.3835 22 25.7835 22 24.0002C22 23.2169 21.85 22.4669 21.5834 21.7835C23.4167 21.2835 24.9 19.9502 25.5833 18.2002C28.1166 18.9002 30 21.2335 30 24.0002Z" stroke="#828C97" stroke-width="2" stroke-linecap="round" stroke-linejoin="round"/>
<path d="M3.33325 21.9997V24.9997C3.33325 33.333 6.66659 36.6663 14.9999 36.6663H24.9999C33.3333 36.6663 36.6666 33.333 36.6666 24.9997V14.9997C36.6666 6.66634 33.3333 3.33301 24.9999 3.33301H14.9999C6.66659 3.33301 3.33325 6.66634 3.33325 14.9997" stroke="#828C97" stroke-width="2" stroke-linecap="round" stroke-linejoin="round"/>
</svg>
