<svg width="24" height="24" viewBox="0 0 24 24" fill="none" xmlns="http://www.w3.org/2000/svg">
<path d="M9.25 13.8075V13.7039L9.17678 13.6307L3.61928 8.07322L3.61875 8.0727C3.38412 7.83947 3.25153 7.52275 3.25 7.19195V4.5C3.25 4.16848 3.3817 3.85054 3.61612 3.61612C3.85054 3.3817 4.16848 3.25 4.5 3.25H19.5C19.8315 3.25 20.1495 3.3817 20.3839 3.61612C20.6183 3.85054 20.75 4.16848 20.75 4.5L20.75 7.19145C20.75 7.19159 20.75 7.19174 20.75 7.19188C20.7485 7.52271 20.6159 7.83945 20.3813 8.07269L20.3807 8.07322L14.8232 13.6307L14.75 13.7039V13.8075V19.5C14.75 19.8315 14.6183 20.1495 14.3839 20.3839C14.1495 20.6183 13.8315 20.75 13.5 20.75H10.5C10.1685 20.75 9.85054 20.6183 9.61612 20.3839C9.3817 20.1495 9.25 19.8315 9.25 19.5V13.8075ZM4.5 4.25H4.25V4.5V7.1925V7.29605L4.32322 7.36928L10.25 13.2961V19.5V19.75H10.5H13.5H13.75V19.5V13.2961L19.6768 7.36928L19.75 7.29605V7.1925V4.5V4.25H19.5H4.5Z" fill="#515961" stroke="#515961" stroke-width="0.5"/>
</svg>
