<svg width="24" height="24" viewBox="0 0 24 24" fill="none" xmlns="http://www.w3.org/2000/svg">
<path d="M17.625 4.49999C17.2357 4.49945 16.8512 4.58627 16.5 4.75406V4.12499C16.5002 3.49935 16.277 2.8942 15.8705 2.41858C15.464 1.94297 14.9011 1.62817 14.283 1.53091C13.665 1.43365 13.0325 1.56033 12.4996 1.88813C11.9668 2.21592 11.5685 2.72327 11.3765 3.31874C10.9768 3.10192 10.5276 2.99267 10.0729 3.00169C9.61821 3.01071 9.17368 3.1377 8.78285 3.37021C8.39202 3.60273 8.0683 3.93279 7.84341 4.32805C7.61852 4.72332 7.50017 5.17023 7.49997 5.62499V11.625L7.14184 11.0503C6.794 10.45 6.22265 10.0118 5.55269 9.83157C4.88273 9.6513 4.16865 9.74358 3.56653 10.0883C2.96441 10.4329 2.52323 11.0019 2.33942 11.6709C2.1556 12.3399 2.24411 13.0545 2.58559 13.6584C4.08559 16.8244 5.29778 19.0697 6.68434 20.4731C8.08497 21.8944 9.67497 22.5 12 22.5C14.1872 22.4975 16.2842 21.6275 17.8309 20.0809C19.3775 18.5342 20.2475 16.4373 20.25 14.25V7.12499C20.25 6.4288 19.9734 5.76112 19.4811 5.26884C18.9888 4.77656 18.3212 4.49999 17.625 4.49999ZM18.75 14.25C18.748 16.0396 18.0362 17.7553 16.7707 19.0208C15.5053 20.2862 13.7896 20.998 12 21C10.0893 21 8.85841 20.5425 7.75028 19.4203C6.50997 18.1631 5.36809 16.0312 3.92809 12.9919C3.91966 12.9733 3.91027 12.9551 3.89997 12.9375C3.75078 12.679 3.71038 12.3719 3.78766 12.0836C3.86493 11.7954 4.05354 11.5496 4.312 11.4005C4.57046 11.2513 4.8776 11.2109 5.16585 11.2881C5.4541 11.3654 5.69985 11.554 5.84903 11.8125C5.85285 11.82 5.85724 11.8272 5.86216 11.8341L7.61247 14.6466C7.69845 14.7853 7.82735 14.8922 7.9796 14.951C8.13185 15.0099 8.29914 15.0175 8.45608 14.9726C8.61302 14.9277 8.75104 14.8329 8.8492 14.7025C8.94736 14.5721 9.00029 14.4132 8.99997 14.25V5.62499C8.99997 5.32663 9.1185 5.04048 9.32947 4.8295C9.54045 4.61852 9.8266 4.49999 10.125 4.49999C10.4233 4.49999 10.7095 4.61852 10.9205 4.8295C11.1314 5.04048 11.25 5.32663 11.25 5.62499V11.25C11.25 11.4489 11.329 11.6397 11.4696 11.7803C11.6103 11.921 11.8011 12 12 12C12.1989 12 12.3896 11.921 12.5303 11.7803C12.671 11.6397 12.75 11.4489 12.75 11.25V4.12499C12.75 3.82663 12.8685 3.54048 13.0795 3.3295C13.2905 3.11852 13.5766 2.99999 13.875 2.99999C14.1733 2.99999 14.4595 3.11852 14.6705 3.3295C14.8814 3.54048 15 3.82663 15 4.12499V11.25C15 11.4489 15.079 11.6397 15.2196 11.7803C15.3603 11.921 15.5511 12 15.75 12C15.9489 12 16.1396 11.921 16.2803 11.7803C16.421 11.6397 16.5 11.4489 16.5 11.25V7.12499C16.5 6.82663 16.6185 6.54048 16.8295 6.3295C17.0405 6.11852 17.3266 5.99999 17.625 5.99999C17.9233 5.99999 18.2095 6.11852 18.4205 6.3295C18.6314 6.54048 18.75 6.82663 18.75 7.12499V14.25Z" fill="#0C0D0E"/>
</svg>
