<svg width="40" height="40" viewBox="0 0 40 40" fill="none" xmlns="http://www.w3.org/2000/svg">
<g opacity="0.5">
<path d="M15.0002 36.6668H25.0002C33.3335 36.6668 36.6668 33.3335 36.6668 25.0002V15.0002C36.6668 6.66683 33.3335 3.3335 25.0002 3.3335H15.0002C6.66683 3.3335 3.3335 6.66683 3.3335 15.0002V25.0002C3.3335 33.3335 6.66683 36.6668 15.0002 36.6668Z" stroke="#0C0D0E" stroke-width="2" stroke-linecap="round" stroke-linejoin="round"/>
<path d="M27.1333 22.6834C25.25 24.5667 22.55 25.1501 20.1667 24.4001L15.85 28.7001C15.55 29.0167 14.9333 29.2167 14.4833 29.1501L12.4833 28.8834C11.8167 28.8001 11.2167 28.1667 11.1167 27.5167L10.85 25.5167C10.7833 25.0834 11 24.4667 11.3 24.1501L15.6 19.8501C14.8667 17.4667 15.4333 14.7667 17.3167 12.8834C20.0167 10.1834 24.4167 10.1834 27.1333 12.8834C29.8333 15.5667 29.8333 19.9667 27.1333 22.6834Z" stroke="#0C0D0E" stroke-width="2" stroke-miterlimit="10" stroke-linecap="round" stroke-linejoin="round"/>
<path d="M17.4167 27.1335L16 25.7002" stroke="#0C0D0E" stroke-width="2" stroke-miterlimit="10" stroke-linecap="round" stroke-linejoin="round"/>
<path d="M22.3242 17.8333H22.3391" stroke="#0C0D0E" stroke-width="2" stroke-linecap="round" stroke-linejoin="round"/>
</g>
</svg>
