<svg width="24" height="24" viewBox="0 0 24 24" fill="none" xmlns="http://www.w3.org/2000/svg">
<path d="M17.4399 15.3699C17.2499 15.3699 17.0599 15.2999 16.9099 15.1499C16.6199 14.8599 16.6199 14.3799 16.9099 14.0899L18.9399 12.0599L16.9099 10.0299C16.6199 9.73994 16.6199 9.25994 16.9099 8.96994C17.1999 8.67994 17.6799 8.67994 17.9699 8.96994L20.5299 11.5299C20.8199 11.8199 20.8199 12.2999 20.5299 12.5899L17.9699 15.1499C17.8199 15.2999 17.6299 15.3699 17.4399 15.3699Z" fill="#828C97"/>
<path d="M19.93 12.8101H9.76001C9.35001 12.8101 9.01001 12.4701 9.01001 12.0601C9.01001 11.6501 9.35001 11.3101 9.76001 11.3101H19.93C20.34 11.3101 20.68 11.6501 20.68 12.0601C20.68 12.4701 20.34 12.8101 19.93 12.8101Z" fill="#828C97"/>
<path d="M11.76 20.25C9.3046 20.25 7.24848 19.3939 5.80731 17.9527C4.36615 16.5115 3.51001 14.4554 3.51001 12C3.51001 9.54459 4.36615 7.48847 5.80731 6.0473C7.24848 4.60614 9.3046 3.75 11.76 3.75C11.8939 3.75 12.01 3.86614 12.01 4C12.01 4.13386 11.8939 4.25 11.76 4.25C9.50562 4.25 7.56168 5.03873 6.18021 6.4202C4.79874 7.80167 4.01001 9.74561 4.01001 12C4.01001 14.2544 4.79874 16.1983 6.18021 17.5798C7.56168 18.9613 9.50562 19.75 11.76 19.75C11.8939 19.75 12.01 19.8661 12.01 20C12.01 20.1339 11.8939 20.25 11.76 20.25Z" fill="#828C97" stroke="#828C97"/>
</svg>
