<svg xmlns="http://www.w3.org/2000/svg" viewBox="0 0 236.18 283.05">
    <defs>
        <style>.cls-1{fill:#fff;}</style>
    </defs>
    <title>Asset 2</title>
    <g id="Layer_2" data-name="Layer 2">
        <g id="Layer_1-2" data-name="Layer 1">
            <path d="M37.82,188.55c-2.44-1-4.52-1.72-6.55-2.58C12.93,178.19,2,164.42.91,144.56A541.84,541.84,0,0,1,.85,89.15c.71-15.19,7.68-28,19.51-37.89,14-11.7,27.91-23.49,42-35.12C74.21,6.3,88.35,2.07,103.41.75,111.6,0,119.88.07,128.12.05c26.12-.09,52.24,0,78.36,0,1.38,0,2.76,0,4.13.08,9.07.77,13.37,5.12,13.47,14.22.16,13.87.12,27.74,0,41.62A15.7,15.7,0,0,1,218,68.64c-9.4,7.61-18.6,15.47-28.41,23.68,3,.87,5.49,1.47,7.88,2.32,27.32,9.68,37.48,24.68,38.32,49.37.56,16.46.51,33-.37,49.44-.81,15.05-7.32,27.85-19.1,37.68-14.29,11.93-28.43,24-42.82,35.84-13.41,11-29.34,15.57-46.29,15.77-37.24.44-74.48.3-111.73.24C4.37,283,.1,278.49,0,267.41,0,254.67,0,241.92,0,229.17c0-6,2-10.75,6.85-14.63,9.18-7.32,18-15,27-22.58C35.12,190.92,36.32,189.85,37.82,188.55Zm78.4,54.9c15.12,0,30.25.31,45.36-.12a146.71,146.71,0,0,0,26.74-2.73c26.83-5.78,43.63-25.42,44.24-51.26.35-15,.32-30,0-45-.43-19.45-8.37-34.53-26.87-42.63-5.33-2.33-10.9-4.66-16.59-5.59-19-3.1-38-5.62-57.05-8.26-7-1-10.37-4.9-9.88-11.92.43-6.16,3.76-8.85,11-8.85q36.93,0,73.86,0a35,35,0,0,0,5.22-.34c5.27-.8,8.2-3.67,8.26-9q.27-22.5,0-45c-.06-5.33-3.37-8.49-8.65-9.09a45.73,45.73,0,0,0-5.24-.22c-29.87,0-59.74-.29-89.6.13A122.72,122.72,0,0,0,88.12,7c-21.48,5.57-37,18.63-40.22,41.42a236.87,236.87,0,0,0,.24,65.73c1.8,12.85,9.18,22.41,20.63,28.77A81,81,0,0,0,97,152.25c17.29,2.48,34.6,4.85,51.86,7.5a9.44,9.44,0,0,1,5.91,3.33c2.67,3.92,2.75,8.48.74,12.86-1.85,4-5.5,4.67-9.44,4.64s-8,0-12,0c-25.62,0-51.24,0-76.85.07-6.93,0-10.62,3.31-10.7,9.81q-.27,21.54,0,43.11c.07,5.83,3.2,8.92,8.94,9.65a39.44,39.44,0,0,0,4.86.23Q88.29,243.47,116.22,243.45Z"/>
            <path class="cls-1"
                  d="M116.22,243.45q-27.93,0-55.86,0a39.44,39.44,0,0,1-4.86-.23c-5.74-.73-8.87-3.82-8.94-9.65q-.26-21.56,0-43.11c.08-6.5,3.77-9.79,10.7-9.81,25.61-.09,51.23-.06,76.85-.07,4,0,8,0,12,0s7.59-.6,9.44-4.64c2-4.38,1.93-8.94-.74-12.86a9.44,9.44,0,0,0-5.91-3.33c-17.26-2.65-34.57-5-51.86-7.5a81,81,0,0,1-28.27-9.31C57.32,136.58,49.94,127,48.14,114.17a236.87,236.87,0,0,1-.24-65.73C51.11,25.65,66.64,12.59,88.12,7A122.72,122.72,0,0,1,117,3.6c29.86-.42,59.73-.15,89.6-.13a45.73,45.73,0,0,1,5.24.22c5.28.6,8.59,3.76,8.65,9.09q.27,22.5,0,45c-.06,5.32-3,8.19-8.26,9a35,35,0,0,1-5.22.34q-36.93,0-73.86,0c-7.23,0-10.56,2.69-11,8.85-.49,7,2.9,11,9.88,11.92,19,2.64,38.09,5.16,57.05,8.26,5.69.93,11.26,3.26,16.59,5.59,18.5,8.1,26.44,23.18,26.87,42.63.33,15,.36,30,0,45-.61,25.84-17.41,45.48-44.24,51.26a146.71,146.71,0,0,1-26.74,2.73C146.47,243.76,131.34,243.45,116.22,243.45Zm-39.55-30.3a11.94,11.94,0,0,0,1.25.26c16.87,0,33.74.08,50.62,0,12.24,0,24.5.1,36.72-.47,16.06-.75,28.77-12,30.48-27.8a154.7,154.7,0,0,0,.15-31.4c-1.62-17-7.66-22.85-24.51-26.33-22.84-4.73-45.7-9.37-68.55-14.08C91.06,110.92,86.26,105.09,86.14,93c-.09-10.12,0-20.24,0-30.37a24,24,0,0,1,8-18c6.18-5.79,13.74-7.91,22-7.93q35.06,0,70.12,0h3.93c1-2.89-.23-3.32-2.4-3.3-10,.05-20,0-30,0-15.37.07-30.76-.17-46.11.38-16,.57-28.1,12.27-28.78,28-.52,12.08-.1,24.23.36,36.33.29,7.64,4.44,13.15,11.53,16.13a46.13,46.13,0,0,0,8.53,2.67c23.21,4.81,46.45,9.49,69.66,14.28,12,2.49,18.58,8.93,19.48,20.92a222.83,222.83,0,0,1,0,32.58c-.32,4.54-2.75,9.41-5.49,13.22-6.2,8.64-15.46,12-25.83,12-26.62.11-53.24,0-79.87.06H76.67Z"/>
            <path d="M76.67,213.15V210h4.61c26.63,0,53.25,0,79.87-.06,10.37,0,19.63-3.37,25.83-12,2.74-3.81,5.17-8.68,5.49-13.22a222.83,222.83,0,0,0,0-32.58c-.9-12-7.47-18.43-19.48-20.92-23.21-4.79-46.45-9.47-69.66-14.28a46.13,46.13,0,0,1-8.53-2.67c-7.09-3-11.24-8.49-11.53-16.13-.46-12.1-.88-24.25-.36-36.33.68-15.71,12.79-27.41,28.78-28,15.35-.55,30.74-.31,46.11-.38,10,0,20,0,30,0,2.17,0,3.45.41,2.4,3.3h-3.93q-35.07,0-70.12,0c-8.25,0-15.81,2.14-22,7.93a24,24,0,0,0-8,18c0,10.13-.09,20.25,0,30.37.12,12.09,4.92,17.92,16.69,20.35,22.85,4.71,45.71,9.35,68.55,14.08,16.85,3.48,22.89,9.36,24.51,26.33a154.7,154.7,0,0,1-.15,31.4C194,201,181.32,212.21,165.26,213c-12.22.57-24.48.43-36.72.47-16.88.06-33.75,0-50.62,0A11.94,11.94,0,0,1,76.67,213.15Z"/>
        </g>
    </g>
</svg>