<svg width="25" height="24" viewBox="0 0 25 24" fill="none" xmlns="http://www.w3.org/2000/svg">
<g id="Minus Plus">
<path id="plus" d="M7.04583 12.5625H11.6413V17.1579C11.6413 17.625 12.0255 18.0167 12.5001 18.0167C12.9747 18.0167 13.3589 17.625 13.3589 17.1579V12.5625H17.9543C18.4214 12.5625 18.8131 12.1783 18.8131 11.7037C18.8131 11.2291 18.4214 10.8449 17.9543 10.8449H13.3589V6.24944C13.3589 5.78237 12.9747 5.39062 12.5001 5.39062C12.0255 5.39062 11.6413 5.78237 11.6413 6.24944V10.8449H7.04583C6.57875 10.8449 6.18701 11.2291 6.18701 11.7037C6.18701 12.1783 6.57875 12.5625 7.04583 12.5625Z" fill="#717171"/>
</g>
</svg>
