<svg width="13" height="14" viewBox="0 0 13 14" fill="none" xmlns="http://www.w3.org/2000/svg">
<path d="M1.04583 7.5625H5.64125V12.1579C5.64125 12.625 6.02546 13.0167 6.50007 13.0167C6.97468 13.0167 7.35889 12.625 7.35889 12.1579V7.5625H11.9543C12.4214 7.5625 12.8131 7.17829 12.8131 6.70368C12.8131 6.22907 12.4214 5.84487 11.9543 5.84487H7.35889V1.24944C7.35889 0.782366 6.97468 0.390625 6.50007 0.390625C6.02546 0.390625 5.64125 0.782366 5.64125 1.24944V5.84487H1.04583C0.578753 5.84487 0.187012 6.22907 0.187012 6.70368C0.187012 7.17829 0.578753 7.5625 1.04583 7.5625Z" fill="white"/>
</svg>
