<svg width="40" height="40" viewBox="0 0 40 40" fill="none" xmlns="http://www.w3.org/2000/svg">
<path d="M33.7501 27.6778V12.3228C34.6031 12.1043 35.3831 11.6638 36.0108 11.0463C36.6385 10.4288 37.0917 9.65618 37.3242 8.80688C37.5568 7.95759 37.5605 7.06188 37.3349 6.21071C37.1093 5.35953 36.6625 4.58321 36.0399 3.96056C35.4172 3.33791 34.6409 2.89112 33.7897 2.66554C32.9385 2.43996 32.0428 2.44364 31.1935 2.67619C30.3443 2.90875 29.5716 3.3619 28.9541 3.98964C28.3366 4.61738 27.8962 5.39734 27.6776 6.25034H12.3226C12.104 5.39734 11.6636 4.61738 11.0461 3.98964C10.4286 3.3619 9.65593 2.90875 8.80664 2.67619C7.95734 2.44364 7.06164 2.43996 6.21046 2.66554C5.35929 2.89112 4.58296 3.33791 3.96032 3.96056C3.33767 4.58321 2.89087 5.35953 2.66529 6.21071C2.43972 7.06188 2.44339 7.95759 2.67595 8.80688C2.9085 9.65618 3.36166 10.4288 3.98939 11.0463C4.61713 11.6638 5.3971 12.1043 6.25009 12.3228V27.6778C5.3971 27.8964 4.61713 28.3368 3.98939 28.9543C3.36166 29.5719 2.9085 30.3445 2.67595 31.1938C2.44339 32.0431 2.43972 32.9388 2.66529 33.79C2.89087 34.6411 3.33767 35.4175 3.96032 36.0401C4.58296 36.6628 5.35929 37.1096 6.21046 37.3351C7.06164 37.5607 7.95734 37.557 8.80664 37.3245C9.65593 37.0919 10.4286 36.6388 11.0461 36.011C11.6636 35.3833 12.104 34.6033 12.3226 33.7503H27.6776C27.8962 34.6033 28.3366 35.3833 28.9541 36.011C29.5716 36.6388 30.3443 37.0919 31.1935 37.3245C32.0428 37.557 32.9385 37.5607 33.7897 37.3351C34.6409 37.1096 35.4172 36.6628 36.0399 36.0401C36.6625 35.4175 37.1093 34.6411 37.3349 33.79C37.5605 32.9388 37.5568 32.0431 37.3242 31.1938C37.0917 30.3445 36.6385 29.5719 36.0108 28.9543C35.3831 28.3368 34.6031 27.8964 33.7501 27.6778ZM32.5001 5.00034C32.9945 5.00034 33.4779 5.14696 33.889 5.42166C34.3001 5.69637 34.6206 6.08681 34.8098 6.54363C34.999 7.00044 35.0485 7.50311 34.9521 7.98806C34.8556 8.47301 34.6175 8.91847 34.2679 9.2681C33.9182 9.61773 33.4728 9.85584 32.9878 9.9523C32.5029 10.0488 32.0002 9.99925 31.5434 9.81004C31.0866 9.62082 30.6961 9.30038 30.4214 8.88926C30.1467 8.47814 30.0001 7.99479 30.0001 7.50034C30.0008 6.8375 30.2644 6.202 30.7331 5.7333C31.2018 5.2646 31.8373 5.001 32.5001 5.00034ZM5.00009 7.50034C5.00009 7.00588 5.14672 6.52253 5.42142 6.11141C5.69612 5.70029 6.08657 5.37986 6.54338 5.19064C7.0002 5.00142 7.50287 4.95191 7.98782 5.04837C8.47277 5.14484 8.91823 5.38294 9.26786 5.73257C9.61749 6.0822 9.85559 6.52766 9.95206 7.01261C10.0485 7.49756 9.99901 8.00023 9.80979 8.45705C9.62057 8.91386 9.30014 9.30431 8.88902 9.57901C8.47789 9.85371 7.99455 10.0003 7.50009 10.0003C6.83725 9.99967 6.20175 9.73607 5.73306 9.26737C5.26436 8.79867 5.00075 8.16317 5.00009 7.50034ZM7.50009 35.0003C7.00564 35.0003 6.52229 34.8537 6.11117 34.579C5.70004 34.3043 5.37961 33.9139 5.19039 33.457C5.00117 33.0002 4.95167 32.4976 5.04813 32.0126C5.14459 31.5277 5.38269 31.0822 5.73233 30.7326C6.08196 30.3829 6.52741 30.1448 7.01237 30.0484C7.49732 29.9519 7.99999 30.0014 8.4568 30.1906C8.91362 30.3799 9.30406 30.7003 9.57877 31.1114C9.85347 31.5225 10.0001 32.0059 10.0001 32.5003C9.99943 33.1632 9.73583 33.7987 9.26713 34.2674C8.79843 34.7361 8.16293 34.9997 7.50009 35.0003ZM27.6776 31.2503H12.3226C12.0987 30.3909 11.6496 29.6068 11.0216 28.9788C10.3936 28.3508 9.6095 27.9017 8.75009 27.6778V12.3228C9.60944 12.0988 10.3935 11.6497 11.0215 11.0217C11.6494 10.3937 12.0986 9.60968 12.3226 8.75034H27.6776C27.9015 9.60974 28.3506 10.3939 28.9786 11.0218C29.6066 11.6498 30.3907 12.0989 31.2501 12.3228V27.6778C30.3906 27.9016 29.6064 28.3507 28.9784 28.9787C28.3504 29.6067 27.9014 30.3909 27.6776 31.2503ZM32.5001 35.0003C32.0056 35.0003 31.5223 34.8537 31.1112 34.579C30.7 34.3043 30.3796 33.9139 30.1904 33.457C30.0012 33.0002 29.9517 32.4976 30.0481 32.0126C30.1446 31.5277 30.3827 31.0822 30.7323 30.7326C31.082 30.3829 31.5274 30.1448 32.0124 30.0484C32.4973 29.9519 33 30.0014 33.4568 30.1906C33.9136 30.3799 34.3041 30.7003 34.5788 31.1114C34.8535 31.5225 35.0001 32.0059 35.0001 32.5003C34.9991 33.1631 34.7354 33.7984 34.2668 34.267C33.7981 34.7356 33.1628 34.9993 32.5001 35.0003Z" fill="#0C0D0E"/>
</svg>
