<svg width="25" height="24" viewBox="0 0 25 24" fill="none" xmlns="http://www.w3.org/2000/svg">
<path d="M12.5001 22.7496C7.30008 22.7496 3.08008 18.5196 3.08008 13.3296C3.08008 11.4596 3.63008 9.64965 4.67008 8.08965C4.90008 7.74965 5.37008 7.64965 5.71008 7.87965C6.05008 8.10965 6.15008 8.57965 5.92008 8.91965C5.05008 10.2196 4.59008 11.7496 4.59008 13.3196C4.59008 17.6896 8.14008 21.2396 12.5101 21.2396C16.8801 21.2396 20.4301 17.6896 20.4301 13.3196C20.4301 8.94965 16.8701 5.39965 12.5001 5.39965C11.5801 5.39965 10.6801 5.52965 9.83008 5.78965C9.43008 5.90965 9.01008 5.68965 8.89008 5.28965C8.77008 4.88965 8.99008 4.46965 9.39008 4.34965C10.3901 4.04965 11.4301 3.88965 12.5001 3.88965C17.7001 3.88965 21.9201 8.11965 21.9201 13.3096C21.9201 18.4996 17.7001 22.7496 12.5001 22.7496Z" fill="#515961"/>
<path d="M8.36987 6.07012C8.19987 6.07012 8.01987 6.01012 7.87987 5.89012C7.55987 5.61012 7.52987 5.14012 7.79987 4.83012L10.6899 1.51012C10.9599 1.20012 11.4399 1.16012 11.7499 1.44012C12.0599 1.71012 12.0899 2.19012 11.8199 2.50012L8.92987 5.81012C8.77987 5.98012 8.56987 6.07012 8.36987 6.07012Z" fill="#515961"/>
<path d="M11.7401 8.53013C11.5901 8.53013 11.4301 8.48013 11.3001 8.39013L7.92008 5.92013C7.59008 5.68013 7.52008 5.21013 7.76008 4.88013C8.00008 4.54013 8.47008 4.47013 8.81008 4.71013L12.1801 7.17013C12.5101 7.41013 12.5901 7.88013 12.3401 8.22013C12.2001 8.43013 11.9701 8.53013 11.7401 8.53013Z" fill="#515961"/>
</svg>
