<svg width="20" height="20" viewBox="0 0 20 20" fill="none" xmlns="http://www.w3.org/2000/svg">
<path d="M10 5.36719V8.14219" stroke="#717171" stroke-width="1.5" stroke-miterlimit="10" stroke-linecap="round"/>
<path d="M10.0171 1.66602C6.9504 1.66602 4.46707 4.14935 4.46707 7.21602V8.96602C4.46707 9.53268 4.23374 10.3827 3.94207 10.866L2.88374 12.6327C2.23374 13.7243 2.68374 14.941 3.88374 15.341C7.86707 16.666 12.1754 16.666 16.1587 15.341C17.2837 14.966 17.7671 13.6493 17.1587 12.6327L16.1004 10.866C15.8087 10.3827 15.5754 9.52435 15.5754 8.96602V7.21602C15.5671 4.16602 13.0671 1.66602 10.0171 1.66602Z" stroke="#717171" stroke-width="1.5" stroke-miterlimit="10" stroke-linecap="round"/>
<path d="M12.7746 15.6836C12.7746 17.2086 11.5246 18.4586 9.99961 18.4586C9.24128 18.4586 8.54128 18.1419 8.04128 17.6419C7.54128 17.1419 7.22461 16.4419 7.22461 15.6836" stroke="#717171" stroke-width="1.5" stroke-miterlimit="10"/>
</svg>
