<svg width="40" height="40" viewBox="0 0 40 40" fill="none" xmlns="http://www.w3.org/2000/svg">
<path d="M31.6666 29.5837H8.33325C4.29992 29.5837 2.08325 27.367 2.08325 23.3337V16.667C2.08325 12.6337 4.29992 10.417 8.33325 10.417H31.6666C35.6999 10.417 37.9166 12.6337 37.9166 16.667V23.3337C37.9166 27.367 35.6999 29.5837 31.6666 29.5837ZM8.33325 12.917C5.69992 12.917 4.58325 14.0337 4.58325 16.667V23.3337C4.58325 25.967 5.69992 27.0837 8.33325 27.0837H31.6666C34.2999 27.0837 35.4166 25.967 35.4166 23.3337V16.667C35.4166 14.0337 34.2999 12.917 31.6666 12.917H8.33325Z" fill="#828C97"/>
<path d="M30 21.2503C29.3167 21.2503 28.75 20.6837 28.75 20.0003V11.667C28.75 10.9837 29.3167 10.417 30 10.417C30.6833 10.417 31.25 10.9837 31.25 11.667V20.0003C31.25 20.6837 30.6833 21.2503 30 21.2503Z" fill="#828C97"/>
<path d="M10 19.5837C9.31667 19.5837 8.75 19.017 8.75 18.3337V11.667C8.75 10.9837 9.31667 10.417 10 10.417C10.6833 10.417 11.25 10.9837 11.25 11.667V18.3337C11.25 19.017 10.6833 19.5837 10 19.5837Z" fill="#828C97"/>
<path d="M16.6667 21.2503C15.9667 21.2503 15.4167 20.6837 15.4167 19.9837L15.5001 11.6503C15.5001 10.967 16.0667 10.417 16.7501 10.417C16.7501 10.417 16.7501 10.417 16.7667 10.417C17.4501 10.417 18.0167 10.9837 18.0001 11.6837L17.9167 20.017C17.9167 20.7003 17.3501 21.2503 16.6667 21.2503Z" fill="#828C97"/>
<path d="M23.3333 17.917C22.6499 17.917 22.0833 17.3503 22.0833 16.667V11.667C22.0833 10.9837 22.6499 10.417 23.3333 10.417C24.0166 10.417 24.5833 10.9837 24.5833 11.667V16.667C24.5833 17.3503 24.0166 17.917 23.3333 17.917Z" fill="#828C97"/>
</svg>
