<svg width="24" height="24" viewBox="0 0 24 24" fill="none" xmlns="http://www.w3.org/2000/svg">
<path d="M6.66602 8.66602V21.3327C6.66602 21.7009 6.96449 21.9993 7.33268 21.9993H16.666C17.0342 21.9993 17.3327 21.7009 17.3327 21.3327V8.66602" stroke="#717171" stroke-width="1.5" stroke-linecap="round" stroke-linejoin="round"/>
<path d="M17.3327 12.6667H20.666C21.0342 12.6667 21.3327 12.3682 21.3327 12V7.33333C21.3327 4.38781 18.9449 2 15.9993 2H14.666C14.666 3.47276 13.4721 4.66667 11.9993 4.66667C10.5266 4.66667 9.33268 3.47276 9.33268 2H7.99935C5.05383 2 2.66602 4.38781 2.66602 7.33333V12C2.66602 12.3682 2.96449 12.6667 3.33268 12.6667H6.66602" stroke="#717171" stroke-width="1.5" stroke-linecap="round" stroke-linejoin="round"/>
</svg>
