<svg width="22" height="19" viewBox="0 0 22 19" fill="none" xmlns="http://www.w3.org/2000/svg">
<path d="M5.0735 0.573894L5.07395 0.573446C5.09717 0.550166 5.12476 0.531694 5.15513 0.519091C5.1855 0.506487 5.21806 0.5 5.25095 0.5C5.28383 0.5 5.31639 0.506487 5.34676 0.51909L5.5384 0.057272L5.34676 0.519091C5.37714 0.531694 5.40473 0.550165 5.42795 0.573448L5.42839 0.573894L9.92839 5.07389C9.97546 5.12096 10.0019 5.18478 10.0019 5.25134C10.0019 5.3179 9.97546 5.38173 9.92839 5.42879C9.88133 5.47585 9.8175 5.50229 9.75095 5.50229C9.68439 5.50229 9.62056 5.47585 9.5735 5.42879L6.35458 2.20837L5.50095 1.35434V2.56184V17.2513C5.50095 17.3176 5.47461 17.3812 5.42772 17.4281C5.38084 17.475 5.31725 17.5013 5.25095 17.5013C5.18464 17.5013 5.12105 17.475 5.07417 17.4281C5.02729 17.3812 5.00095 17.3176 5.00095 17.2513V2.56184V1.35434L4.14731 2.20837L0.928394 5.42879C0.881332 5.47585 0.817502 5.50229 0.750947 5.50229C0.684393 5.50229 0.620563 5.47585 0.573501 5.42879C0.526439 5.38173 0.5 5.3179 0.5 5.25134C0.5 5.18479 0.526439 5.12096 0.573501 5.07389L5.0735 0.573894ZM15.9254 17.4318L15.9249 17.4323C15.8783 17.4775 15.8159 17.5028 15.7509 17.5028C15.6939 17.5028 15.6388 17.4833 15.5946 17.4479L15.5765 17.4303L11.0765 13.0803L11.0765 13.0803L11.0742 13.0781C11.0503 13.0554 11.0312 13.0281 11.0179 12.9979L10.5602 13.199L11.0179 12.9979C11.0046 12.9677 10.9975 12.9351 10.9968 12.9022C10.9962 12.8692 11.0021 12.8364 11.0142 12.8057C11.0263 12.775 11.0443 12.747 11.0673 12.7233L10.7083 12.3753L11.0673 12.7233C11.0902 12.6996 11.1177 12.6807 11.148 12.6677C11.1783 12.6546 11.2109 12.6477 11.2439 12.6473C11.2768 12.6469 11.3096 12.6531 11.3402 12.6654L11.527 12.2016L11.3402 12.6654C11.3708 12.6777 11.3987 12.696 11.4222 12.7191L11.4222 12.7192L11.4255 12.7224L14.6535 15.8424L15.5009 16.6615V15.4828V0.752841C15.5009 0.686535 15.5273 0.622947 15.5742 0.576065C15.6211 0.52918 15.6846 0.502841 15.7509 0.502841C15.8173 0.502841 15.8808 0.52918 15.9277 0.576063L16.2813 0.222511L15.9277 0.576066C15.9746 0.622947 16.0009 0.686534 16.0009 0.752841V15.4828V16.6619L16.8485 15.8423L20.0765 12.7208C20.1243 12.6746 20.1886 12.6492 20.2552 12.6503C20.3218 12.6514 20.3852 12.679 20.4315 12.7269C20.4777 12.7747 20.5031 12.839 20.502 12.9056C20.5008 12.9722 20.4733 13.0356 20.4254 13.0818L15.9254 17.4318Z" fill="#515961" stroke="#515961"/>
</svg>
