<svg width="40" height="40" viewBox="0 0 40 40" fill="none" xmlns="http://www.w3.org/2000/svg">
<path d="M5.0166 18.7002V26.1835C5.0166 33.6669 8.0166 36.6669 15.4999 36.6669H24.4833C31.9666 36.6669 34.9666 33.6669 34.9666 26.1835V18.7002" stroke="#828C97" stroke-width="2" stroke-linecap="round" stroke-linejoin="round"/>
<path d="M20 19.9997C23.05 19.9997 25.3 17.5163 25 14.4663L23.9 3.33301H16.1166L15 14.4663C14.7 17.5163 16.95 19.9997 20 19.9997Z" stroke="#828C97" stroke-width="2" stroke-linecap="round" stroke-linejoin="round"/>
<path d="M30.5166 19.9997C33.8833 19.9997 36.3499 17.2663 36.0166 13.9163L35.5499 9.33301C34.9499 4.99967 33.2833 3.33301 28.9166 3.33301H23.8333L24.9999 15.0163C25.2833 17.7663 27.7666 19.9997 30.5166 19.9997Z" stroke="#828C97" stroke-width="2" stroke-linecap="round" stroke-linejoin="round"/>
<path d="M9.40005 19.9997C12.15 19.9997 14.6334 17.7663 14.9 15.0163L15.2667 11.333L16.0667 3.33301H10.9834C6.61672 3.33301 4.95005 4.99967 4.35005 9.33301L3.90005 13.9163C3.56671 17.2663 6.03338 19.9997 9.40005 19.9997Z" stroke="#828C97" stroke-width="2" stroke-linecap="round" stroke-linejoin="round"/>
<path d="M19.9999 28.333C17.2166 28.333 15.8333 29.7163 15.8333 32.4997V36.6663H24.1666V32.4997C24.1666 29.7163 22.7833 28.333 19.9999 28.333Z" stroke="#828C97" stroke-width="2" stroke-linecap="round" stroke-linejoin="round"/>
</svg>
