<svg width="35" height="36" viewBox="0 0 35 36" fill="none" xmlns="http://www.w3.org/2000/svg">
<path d="M8.33203 12.667V33.8837C8.33203 34.5004 8.85437 35.0003 9.4987 35.0003H25.832C26.4764 35.0003 26.9987 34.5004 26.9987 33.8837V12.667" stroke="#0C0D0E" stroke-width="2" stroke-linecap="round" stroke-linejoin="round"/>
<path d="M26.9999 19.3667H32.8333C33.4776 19.3667 33.9999 18.8667 33.9999 18.25V10.4333C33.9999 5.49959 29.8212 1.5 24.6666 1.5H22.3333C22.3333 3.96687 20.2439 5.96667 17.6666 5.96667C15.0893 5.96667 12.9999 3.96687 12.9999 1.5H10.6666C5.51193 1.5 1.33325 5.49959 1.33325 10.4333V18.25C1.33325 18.8667 1.85559 19.3667 2.49992 19.3667H8.33325" stroke="#0C0D0E" stroke-width="2" stroke-linecap="round" stroke-linejoin="round"/>
</svg>
