<svg width="20" height="20" viewBox="0 0 20 20" fill="none" xmlns="http://www.w3.org/2000/svg">
<path d="M5.73303 7.33325V17.4666C5.73303 17.7611 5.97181 17.9999 6.26637 17.9999H13.733C14.0276 17.9999 14.2664 17.7611 14.2664 17.4666V7.33325" stroke="#0C0D0E" stroke-width="1.5" stroke-linecap="round" stroke-linejoin="round"/>
<path d="M14.2668 10.5333H16.9334C17.228 10.5333 17.4668 10.2946 17.4668 10V6.26667C17.4668 3.91025 15.5565 2 13.2001 2H12.1334C12.1334 3.17821 11.1783 4.13333 10.0001 4.13333C8.82191 4.13333 7.86678 3.17821 7.86678 2H6.80011C4.4437 2 2.53345 3.91025 2.53345 6.26667V10C2.53345 10.2946 2.77223 10.5333 3.06678 10.5333H5.73345" stroke="#0C0D0E" stroke-width="1.5" stroke-linecap="round" stroke-linejoin="round"/>
</svg>
