<svg width="51" height="60" viewBox="0 0 51 60" fill="none" xmlns="http://www.w3.org/2000/svg">
<path d="M8.48473 39.9683C7.96751 39.7563 7.5266 39.6037 7.09629 39.4214C3.20863 37.7722 0.891727 34.8533 0.660672 30.6434C0.456114 26.731 0.451869 22.8107 0.647954 18.8978C0.798457 15.6779 2.27593 12.9625 4.78362 10.866C7.75129 8.38588 10.6999 5.88667 13.6866 3.42138C16.1986 1.33553 19.1959 0.438869 22.3883 0.15906C24.1244 7.75007e-05 25.8795 0.0149159 27.6262 0.0106763C33.1631 -0.00840157 38.6999 0.0106763 44.2367 0.0106763C44.5293 0.0106763 44.8218 0.0106763 45.1122 0.0276345C47.0348 0.190857 47.9463 1.11296 47.9675 3.04194C48.0014 5.98206 47.993 8.92218 47.9675 11.8644C47.9761 12.3814 47.8641 12.8933 47.6404 13.3595C47.4167 13.8257 47.0874 14.2334 46.6787 14.5502C44.6861 16.1633 42.7359 17.8294 40.6564 19.5698C41.2924 19.7542 41.8202 19.8814 42.3268 20.0616C48.118 22.1135 50.2717 25.2931 50.4498 30.5268C50.5685 34.016 50.5579 37.5221 50.3713 41.007C50.1996 44.1972 48.8197 46.9105 46.3226 48.9943C43.2934 51.5231 40.2961 54.0817 37.2457 56.5915C34.4031 58.9232 31.0263 59.892 27.4333 59.9344C19.5393 60.0276 11.6453 59.998 3.74917 59.9852C1.39411 59.9895 0.488971 59.0335 0.467773 56.6848C0.467773 53.9842 0.467773 51.2815 0.467773 48.5788C0.467773 47.3069 0.891727 46.3 1.91981 45.4776C3.86576 43.9259 5.73539 42.2979 7.64318 40.6911C7.9124 40.4707 8.16677 40.2439 8.48473 39.9683ZM25.1037 51.6058C28.3088 51.6058 31.516 51.6715 34.719 51.5804C36.6221 51.5613 38.5195 51.3676 40.3872 51.0017C46.0746 49.7764 49.6358 45.6132 49.7651 40.1357C49.8393 36.9561 49.8329 33.7764 49.7651 30.5968C49.6739 26.4738 47.9908 23.2772 44.0693 21.5602C42.9394 21.0663 41.7587 20.5724 40.5526 20.3753C36.525 19.7181 32.4975 19.184 28.4593 18.6243C26.9755 18.4124 26.2611 17.5857 26.365 16.0976C26.4561 14.7918 27.162 14.2216 28.6967 14.2216C33.9156 14.2216 39.1344 14.2216 44.3533 14.2216C44.7234 14.2252 45.0933 14.2011 45.4598 14.1495C46.5769 13.9799 47.198 13.3716 47.2108 12.2417C47.2489 9.06208 47.2489 5.88243 47.2108 2.70278C47.198 1.57294 46.4964 0.903098 45.3772 0.775912C45.0081 0.739131 44.6372 0.723561 44.2664 0.729277C37.9347 0.729277 31.6029 0.667804 25.2733 0.756834C23.2096 0.755346 21.1531 0.999422 19.1472 1.48391C14.5939 2.66462 11.304 5.43304 10.6215 10.264C9.9908 14.8882 10.0079 19.5777 10.6723 24.1972C11.0539 26.9211 12.6183 28.9476 15.0454 30.2958C16.901 31.3186 18.9299 31.9892 21.0295 32.2735C24.6946 32.7992 28.3639 33.3016 32.0226 33.8634C32.5133 33.9353 32.9597 34.1868 33.2754 34.5692C33.8414 35.4002 33.8583 36.3668 33.4323 37.2953C33.0401 38.1432 32.2664 38.2852 31.4312 38.2788C30.596 38.2725 29.7354 38.2788 28.8875 38.2788C23.4566 38.2788 18.0258 38.2788 12.5971 38.2937C11.1281 38.2937 10.3459 38.9953 10.3289 40.3732C10.2908 43.4171 10.2908 46.4633 10.3289 49.5115C10.3438 50.7473 11.0073 51.4023 12.224 51.557C12.5661 51.5945 12.9101 51.6108 13.2542 51.6058C17.2069 51.6086 21.1567 51.6086 25.1037 51.6058Z" fill="#0C0D0E"/>
<path d="M25.1037 51.6058C21.1567 51.6058 17.2097 51.6058 13.2627 51.6058C12.9186 51.6108 12.5745 51.5945 12.2325 51.557C11.0157 51.4023 10.3522 50.7473 10.3374 49.5115C10.3006 46.4647 10.3006 43.4185 10.3374 40.3731C10.3543 38.9953 11.1365 38.2979 12.6055 38.2937C18.0343 38.2746 23.4651 38.2809 28.8959 38.2788C29.7439 38.2788 30.5918 38.2788 31.4397 38.2788C32.2876 38.2788 33.0486 38.1516 33.4407 37.2952C33.8647 36.3668 33.8498 35.4002 33.2839 34.5692C32.9682 34.1868 32.5217 33.9353 32.0311 33.8633C28.3724 33.3016 24.703 32.8035 21.038 32.2735C18.9357 31.9915 16.9039 31.3223 15.0454 30.3C12.6183 28.9518 11.0539 26.9211 10.6723 24.2014C10.0079 19.582 9.99078 14.8924 10.6214 10.2682C11.3019 5.43727 14.5939 2.66885 19.1471 1.4839C21.152 1.00189 23.207 0.759947 25.269 0.763182C31.5986 0.674152 37.9304 0.731385 44.2621 0.735625C44.633 0.729908 45.0038 0.745479 45.3729 0.78226C46.4921 0.909446 47.1938 1.57929 47.2065 2.70913C47.2446 5.88878 47.2446 9.06843 47.2065 12.2481C47.1938 13.3758 46.5706 13.9842 45.4556 14.1559C45.089 14.2075 44.7192 14.2316 44.349 14.2279C39.1302 14.2279 33.9113 14.2279 28.6924 14.2279C27.1599 14.2279 26.454 14.7982 26.3607 16.1039C26.2568 17.5878 26.9754 18.4357 28.455 18.6307C32.4826 19.1903 36.5292 19.7245 40.5483 20.3816C41.7544 20.5788 42.9352 21.0727 44.065 21.5666C47.9866 23.2836 49.6697 26.4802 49.7608 30.6031C49.8308 33.7828 49.8371 36.9624 49.7608 40.1421C49.6315 45.6196 46.0703 49.7828 40.383 51.008C38.5152 51.374 36.6179 51.5677 34.7147 51.5867C31.516 51.6715 28.3088 51.6058 25.1037 51.6058ZM16.72 45.1829C16.8073 45.206 16.8957 45.2244 16.985 45.238C20.561 45.238 24.1371 45.255 27.7152 45.238C30.3098 45.238 32.9087 45.2592 35.499 45.1384C38.9034 44.9794 41.5976 42.5947 41.9601 39.2454C42.1964 37.0336 42.207 34.8034 41.9919 32.5894C41.6485 28.9858 40.3681 27.7457 36.7963 27.008C31.9548 26.0054 27.109 25.0218 22.2653 24.0234C19.7703 23.5125 18.7529 22.2767 18.7274 19.7139C18.7083 17.5687 18.7274 15.4235 18.7274 13.2762C18.7241 12.5564 18.8735 11.8441 19.1658 11.1864C19.4582 10.5286 19.8867 9.94043 20.4232 9.46059C21.7333 8.23324 23.3358 7.78385 25.0867 7.77961C30.0413 7.77961 34.9959 7.77961 39.9505 7.77961H40.7836C40.9956 7.167 40.7348 7.07585 40.2749 7.08009C38.1551 7.09069 36.0353 7.08009 33.9156 7.08009C30.6575 7.09493 27.3952 7.04405 24.1413 7.16064C20.7497 7.28147 18.1848 9.76159 18.0406 13.096C17.9304 15.6567 18.0194 18.2322 18.1169 20.7971C18.1784 22.4166 19.0581 23.5846 20.561 24.2163C21.144 24.463 21.7496 24.6526 22.3692 24.7823C27.2892 25.8019 32.2155 26.7939 37.1355 27.8093C39.6792 28.3371 41.074 29.7022 41.2648 32.2438C41.4333 34.5428 41.4333 36.8511 41.2648 39.15C41.197 40.1124 40.6818 41.1447 40.101 41.9524C38.7868 43.7839 36.8239 44.4961 34.6257 44.4961C28.9829 44.5194 23.34 44.4961 17.6951 44.5088H16.72V45.1829Z" fill="white"/>
<path d="M16.72 45.1829V44.5152H17.6972C23.3421 44.5152 28.9849 44.5152 34.6278 44.5024C36.826 44.5024 38.7889 43.7881 40.1031 41.9587C40.6839 41.1511 41.199 40.1188 41.2669 39.1564C41.4354 36.8574 41.4354 34.5492 41.2669 32.2502C41.0761 29.7065 39.6834 28.3434 37.1376 27.8156C32.2176 26.8003 27.2912 25.8082 22.3713 24.7886C21.7517 24.6589 21.1461 24.4694 20.5631 24.2226C19.0602 23.5867 18.1805 22.4229 18.119 20.8034C18.0215 18.2385 17.9325 15.663 18.0427 13.1023C18.1869 9.77217 20.7539 7.29204 24.1434 7.16698C27.3972 7.05039 30.6596 7.10126 33.9176 7.08643C36.0374 7.08643 38.1572 7.08643 40.2769 7.08643C40.7369 7.08643 41.0083 7.17334 40.7857 7.78595H39.9526C34.9966 7.78595 30.042 7.78595 25.0888 7.78595C23.34 7.78595 21.7375 8.23958 20.4253 9.46692C19.8888 9.94676 19.4603 10.535 19.1679 11.1927C18.8756 11.8505 18.7262 12.5627 18.7295 13.2825C18.7295 15.4298 18.7104 17.575 18.7295 19.7202C18.7549 22.283 19.7724 23.5189 22.2674 24.034C27.1111 25.0324 31.9569 26.0159 36.7984 27.0186C40.3702 27.7563 41.6505 29.0027 41.9939 32.5999C42.2091 34.814 42.1985 37.0441 41.9622 39.256C41.5912 42.6074 38.9033 44.9836 35.499 45.1511C32.9086 45.2719 30.3098 45.2422 27.7152 45.2507C24.137 45.2634 20.561 45.2507 16.9849 45.2507C16.8955 45.2329 16.807 45.2102 16.72 45.1829Z" fill="#0C0D0E"/>
</svg>
